<?xml version="1.0" encoding="UTF-8" standalone="no"?>
<svg
   viewBox="0 0 512 512"
   version="1.1"
   id="svg44"
   sodipodi:docname="message-regular.svg"
   inkscape:version="1.2.2 (b0a8486541, 2022-12-01)"
   xmlns:inkscape="http://www.inkscape.org/namespaces/inkscape"
   xmlns:sodipodi="http://sodipodi.sourceforge.net/DTD/sodipodi-0.dtd"
   xmlns="http://www.w3.org/2000/svg"
   xmlns:svg="http://www.w3.org/2000/svg">
  <defs
     id="defs48" />
  <sodipodi:namedview
     id="namedview46"
     pagecolor="#ffffff"
     bordercolor="#666666"
     borderopacity="1.0"
     inkscape:showpageshadow="2"
     inkscape:pageopacity="0.0"
     inkscape:pagecheckerboard="0"
     inkscape:deskcolor="#d1d1d1"
     showgrid="false"
     inkscape:zoom="1.7675781"
     inkscape:cx="136.62762"
     inkscape:cy="233.93591"
     inkscape:window-width="1920"
     inkscape:window-height="1131"
     inkscape:window-x="0"
     inkscape:window-y="0"
     inkscape:window-maximized="1"
     inkscape:current-layer="svg44" />
  <!--! Font Awesome Pro 6.4.0 by @fontawesome - https://fontawesome.com License - https://fontawesome.com/license (Commercial License) Copyright 2023 Fonticons, Inc. -->
  <path
     d="M160 368c26.5 0 48 21.5 48 48v16l72.5-54.4c8.3-6.2 18.4-9.6 28.8-9.6H448c8.8 0 16-7.2 16-16V64c0-8.8-7.2-16-16-16H64c-8.8 0-16 7.2-16 16V352c0 8.8 7.2 16 16 16h96zm48 124l-.2 .2-5.1 3.8-17.1 12.8c-4.8 3.6-11.3 4.2-16.8 1.5s-8.8-8.2-8.8-14.3V474.7v-6.4V468v-4V416H112 64c-35.3 0-64-28.7-64-64V64C0 28.7 28.7 0 64 0H448c35.3 0 64 28.7 64 64V352c0 35.3-28.7 64-64 64H309.3L208 492z"
     id="path42"
     style="fill:#a0a0a0;stroke:none" />
  <path
     style="fill:#a0a0a0;stroke:none;stroke-width:0.565746"
     d="m 171.05906,510.86408 c -3.85629,-1.23707 -8.07876,-5.27555 -9.50692,-9.09266 -1.13497,-3.03347 -1.16319,-4.11678 -1.16319,-44.65342 v -41.54453 l -53.32155,-0.16264 -53.321544,-0.16264 -5.531494,-1.52251 C 30.145389,408.75233 15.207915,396.56976 7.0843183,380.18122 3.9647692,373.88784 1.8045947,366.99592 0.88958778,360.41726 0.47038453,357.4033 0.28357604,310.21346 0.28514796,207.72923 0.28759674,48.078287 0.16821537,54.922436 3.1170626,45.37518 9.1932157,25.702884 25.702884,9.1932157 45.37518,3.1170626 55.012568,0.14037646 44.067127,0.287423 256,0.287423 c 211.93287,0 200.98743,-0.14704654 210.62482,2.8296396 19.67229,6.0761531 36.18196,22.5858214 42.25812,42.2581174 2.94885,9.547256 2.82946,2.703107 2.83191,162.35405 0.002,102.48423 -0.18523,149.67407 -0.60444,152.68803 -3.53929,25.44657 -22.10049,46.35571 -47.32477,53.31121 l -5.5315,1.52529 -74.67845,0.28472 -74.67845,0.28472 -62.46968,46.88453 c -34.35831,25.7865 -63.38078,47.26522 -64.49437,47.73051 -2.92022,1.22014 -7.80213,1.41133 -10.87413,0.42584 z m 75.27337,-107.16455 c 40.00725,-29.99846 42.15039,-31.40901 51.81564,-34.10329 l 4.52596,-1.26165 75.2442,-0.29989 c 71.93006,-0.28668 75.33142,-0.34621 77.22431,-1.35147 3.36192,-1.78541 6.71264,-5.46781 7.92585,-8.71043 1.11367,-2.97653 1.12609,-4.63032 1.12609,-149.98164 0,-166.385335 0.49871,-150.14303 -4.77195,-155.413692 -5.29818,-5.298177 17.1346,-4.771943 -203.42253,-4.771943 -220.557122,0 -198.124352,-0.526234 -203.422532,4.771943 -5.270659,5.270662 -4.771943,-10.971643 -4.771943,155.413692 0,145.35132 0.01242,147.00511 1.126081,149.98164 1.213218,3.24262 4.563938,6.92502 7.925853,8.71043 1.877184,0.99691 4.773848,1.06811 55.725971,1.36966 53.20366,0.31487 53.79436,0.33076 58.55469,1.57525 13.85257,3.62146 25.29539,12.81542 31.44168,25.26247 3.98245,8.06496 4.82588,12.23267 5.18077,25.6 0.16729,6.30099 0.43819,11.45635 0.60202,11.45635 0.16382,0 17.25026,-12.71134 37.96984,-28.24743 z"
     id="path223" />
</svg>
